# xmcd
#
# Track frame offsets:
#	150
#	19099
#	32300
#	49554
#	66386
#	84439
#	97569
#	121188
#	134700
#	151472
#	164649
#	179209
#	202417
#	215374
#	231464
#	245536
#
# Disc length: 3614 seconds
# Revision: 0
# Processed by: cddbd v1.5.2PL0 Copyright (c) Steve Scherf et al.
# Submitted via: dBpowerAMP V12.0
#
DISCID=e40e1c10
DTITLE=Dina Buendia - Grandes Exitos en el Bicentenario CD 2
DYEAR=2010
DGENRE=Ranchera
TTITLE0=Paloma Negra
TTITLE1=Una Pagina Más
TTITLE2=Mi Error Mi Fantasía
TTITLE3=Tatuajes
TTITLE4=Acompañame
TTITLE5=Para Que Me Haces Llorar
TTITLE6=El Ganador
TTITLE7=Oye
TTITLE8=Valió La Pena Equivocarme
TTITLE9=Te Sigo Amando
TTITLE10=Gracias Por Haberme Abandonado
TTITLE11=Popurrí
TTITLE12=Un Minuto de Silencio
TTITLE13=La Gata Bajo La Lluvia
TTITLE14=Invisible
TTITLE15=Popurrí Tropical
EXTD=
EXTT0=
EXTT1=
EXTT2=
EXTT3=
EXTT4=
EXTT5=
EXTT6=
EXTT7=
EXTT8=
EXTT9=
EXTT10=
EXTT11=
EXTT12=
EXTT13=
EXTT14=
EXTT15=
PLAYORDER=
